# xmcd
#
# Track frame offsets:
#	150
#	31720
#	57813
#	81135
#	107025
#	139908
#	179335
#	201965
#	225153
#
# Disc length: 3421 seconds
#
# Revision: 1
# Processed by: cddbd v1.5.2PL0 Copyright (c) Steve Scherf et al.
# Submitted via: audiograbber 1.83.01
#
DISCID=6b0d5b09
DTITLE=Bob Dylan - Himself CD 2
DYEAR=1900
DGENRE=
TTITLE0=Mr. Tambourine Man
TTITLE1=Gates Of Eden
TTITLE2=Unbelievable
TTITLE3=I've Been All Around This World
TTITLE4=The Times They Are A-Changin'
TTITLE5=Maggie's Farm
TTITLE6=Shooting Star
TTITLE7=Rainy Day Women
TTITLE8=It Ain't Me Babe
EXTD=
EXTT0=
EXTT1=
EXTT2=
EXTT3=
EXTT4=
EXTT5=
EXTT6=
EXTT7=
EXTT8=
PLAYORDER=
